<svg width="256" height="256" viewBox="0 0 256 256" fill="none" xmlns="http://www.w3.org/2000/svg">
  <defs>
    <linearGradient id="bg" x1="32" y1="20" x2="224" y2="236" gradientUnits="userSpaceOnUse">
      <stop stop-color="#2E8BFF"/>
      <stop offset="1" stop-color="#0D5DB8"/>
    </linearGradient>
    <linearGradient id="ring" x1="52" y1="40" x2="210" y2="214" gradientUnits="userSpaceOnUse">
      <stop stop-color="#8FD3FF" stop-opacity="0.9"/>
      <stop offset="1" stop-color="#DFF4FF" stop-opacity="0.3"/>
    </linearGradient>
  </defs>
  <circle cx="128" cy="128" r="120" fill="url(#bg)"/>
  <circle cx="128" cy="128" r="102" stroke="url(#ring)" stroke-width="8"/>
  <path d="M87 73C87 63.0589 95.0589 55 105 55H169C178.941 55 187 63.0589 187 73V93H69V91C69 81.0589 77.0589 73 87 73Z" fill="white" fill-opacity="0.98"/>
  <path d="M69 90H187V133C187 167.242 159.242 195 125 195H121C92.2812 195 69 171.719 69 143V90Z" fill="white" fill-opacity="0.96"/>
  <path d="M100 116C106.314 107.885 115.919 103 126.201 103C141.764 103 155.105 114.095 159 129" stroke="#0D5DB8" stroke-width="14" stroke-linecap="round"/>
  <path d="M93 141L113 160L160 113" stroke="#24B47E" stroke-width="16" stroke-linecap="round" stroke-linejoin="round"/>
  <path d="M194 63L198.103 73.8969L209 78L198.103 82.1031L194 93L189.897 82.1031L179 78L189.897 73.8969L194 63Z" fill="#DDF5FF"/>
</svg>
